{
	"asset":{
		"generator":"Khronos glTF Blender I/O v4.4.56",
		"version":"2.0"
	},
	"scene":0,
	"scenes":[
		{
			"name":"Scene",
			"nodes":[
				0
			]
		}
	],
	"nodes":[
		{
			"mesh":0,
			"name":"Mesh_0"
		}
	],
	"materials":[
		{
			"name":"Material_0",
			"pbrMetallicRoughness":{
				"baseColorTexture":{
					"index":0
				},
				"metallicFactor":0
			}
		}
	],
	"meshes":[
		{
			"name":"Mesh_0",
			"primitives":[
				{
					"attributes":{
						"POSITION":0,
						"NORMAL":1,
						"TEXCOORD_0":2
					},
					"indices":3,
					"material":0
				}
			]
		}
	],
	"textures":[
		{
			"sampler":0,
			"source":0
		}
	],
	"images":[
		{
			"mimeType":"image/jpeg",
			"name":"a2a086a9ca43436d3325ecb7fdbcab86",
			"uri":"a2a086a9ca43436d3325ecb7fdbcab86.jpg"
		}
	],
	"accessors":[
		{
			"bufferView":0,
			"componentType":5126,
			"count":327607,
			"max":[
				0.05464768409729004,
				0.9410631656646729,
				0.7094821929931641
			],
			"min":[
				-0.6854697465896606,
				-0.43470242619514465,
				-0.0779070258140564
			],
			"type":"VEC3"
		},
		{
			"bufferView":1,
			"componentType":5126,
			"count":327607,
			"type":"VEC3"
		},
		{
			"bufferView":2,
			"componentType":5126,
			"count":327607,
			"type":"VEC2"
		},
		{
			"bufferView":3,
			"componentType":5125,
			"count":327651,
			"type":"SCALAR"
		}
	],
	"bufferViews":[
		{
			"buffer":0,
			"byteLength":3931284,
			"byteOffset":0,
			"target":34962
		},
		{
			"buffer":0,
			"byteLength":3931284,
			"byteOffset":3931284,
			"target":34962
		},
		{
			"buffer":0,
			"byteLength":2620856,
			"byteOffset":7862568,
			"target":34962
		},
		{
			"buffer":0,
			"byteLength":1310604,
			"byteOffset":10483424,
			"target":34963
		}
	],
	"samplers":[
		{
			"magFilter":9729,
			"minFilter":9987
		}
	],
	"buffers":[
		{
			"byteLength":11794028,
			"uri":"dress.bin"
		}
	]
}
